<svg width="95" height="33" viewBox="0 0 95 33" fill="none" xmlns="http://www.w3.org/2000/svg">
<path d="M16.555 6.6825C16.38 6.9625 16.1933 7.1725 15.995 7.3125C15.8083 7.4525 15.5633 7.5225 15.26 7.5225C14.9917 7.5225 14.7 7.44083 14.385 7.2775C14.0817 7.1025 13.7317 6.91 13.335 6.7C12.95 6.49 12.5067 6.30333 12.005 6.14C11.5033 5.965 10.9317 5.8775 10.29 5.8775C9.18167 5.8775 8.35333 6.11667 7.805 6.595C7.26833 7.06167 7 7.6975 7 8.5025C7 9.01583 7.16333 9.44167 7.49 9.78C7.81667 10.1183 8.2425 10.41 8.7675 10.655C9.30417 10.9 9.91083 11.1275 10.5875 11.3375C11.2758 11.5358 11.9758 11.7633 12.6875 12.02C13.3992 12.265 14.0933 12.5567 14.77 12.895C15.4583 13.2333 16.065 13.665 16.59 14.19C17.1267 14.715 17.5583 15.3567 17.885 16.115C18.2117 16.8617 18.375 17.7658 18.375 18.8275C18.375 20.0058 18.1708 21.1083 17.7625 22.135C17.3542 23.1617 16.7592 24.06 15.9775 24.83C15.2075 25.5883 14.2508 26.1892 13.1075 26.6325C11.9758 27.0642 10.6867 27.28 9.24 27.28C8.44667 27.28 7.63583 27.1983 6.8075 27.035C5.99083 26.8717 5.1975 26.6442 4.4275 26.3525C3.6575 26.0492 2.93417 25.6933 2.2575 25.285C1.58083 24.8767 0.991667 24.4217 0.49 23.92L2.24 21.155C2.38 20.9567 2.56083 20.7933 2.7825 20.665C3.01583 20.525 3.26667 20.455 3.535 20.455C3.885 20.455 4.235 20.5658 4.585 20.7875C4.94667 21.0092 5.34917 21.2542 5.7925 21.5225C6.2475 21.7908 6.76667 22.0358 7.35 22.2575C7.93333 22.4792 8.62167 22.59 9.415 22.59C10.4883 22.59 11.3225 22.3567 11.9175 21.89C12.5125 21.4117 12.81 20.6592 12.81 19.6325C12.81 19.0375 12.6467 18.5533 12.32 18.18C11.9933 17.8067 11.5617 17.4975 11.025 17.2525C10.5 17.0075 9.89917 16.7917 9.2225 16.605C8.54583 16.4183 7.85167 16.2142 7.14 15.9925C6.42833 15.7592 5.73417 15.4792 5.0575 15.1525C4.38083 14.8142 3.77417 14.3767 3.2375 13.84C2.7125 13.2917 2.28667 12.615 1.96 11.81C1.63333 10.9933 1.47 9.99 1.47 8.8C1.47 7.84333 1.6625 6.91 2.0475 6C2.4325 5.09 2.99833 4.27916 3.745 3.5675C4.49167 2.85583 5.4075 2.29 6.4925 1.87C7.5775 1.43833 8.82 1.2225 10.22 1.2225C11.0017 1.2225 11.76 1.28667 12.495 1.415C13.2417 1.53167 13.9475 1.7125 14.6125 1.9575C15.2775 2.19083 15.8958 2.47667 16.4675 2.815C17.0508 3.14167 17.57 3.515 18.025 3.935L16.555 6.6825ZM32.2249 13.7175C31.8166 13.2742 31.3732 12.9592 30.8949 12.7725C30.4166 12.5858 29.9149 12.4925 29.3899 12.4925C28.8882 12.4925 28.4274 12.5917 28.0074 12.79C27.5874 12.9883 27.2199 13.3092 26.9049 13.7525C26.6015 14.1842 26.3624 14.75 26.1874 15.45C26.0124 16.15 25.9249 16.9958 25.9249 17.9875C25.9249 18.9442 25.9949 19.7492 26.1349 20.4025C26.2749 21.0558 26.4674 21.5867 26.7124 21.995C26.969 22.3917 27.2724 22.6775 27.6224 22.8525C27.9724 23.0275 28.3632 23.115 28.7949 23.115C29.1916 23.115 29.5474 23.08 29.8624 23.01C30.1891 22.9283 30.4866 22.8175 30.7549 22.6775C31.0232 22.5375 31.2741 22.3625 31.5074 22.1525C31.7524 21.9308 31.9916 21.68 32.2249 21.4V13.7175ZM37.6499 8.8525V32.7575H32.2249V25.0225C31.5365 25.6992 30.7665 26.2475 29.9149 26.6675C29.0632 27.0758 28.0599 27.28 26.9049 27.28C25.9599 27.28 25.0849 27.07 24.2799 26.65C23.4749 26.23 22.7807 25.6233 22.1974 24.83C21.614 24.0367 21.1532 23.0683 20.8149 21.925C20.4882 20.77 20.3249 19.4575 20.3249 17.9875C20.3249 16.6342 20.5115 15.38 20.8849 14.225C21.2582 13.0583 21.7832 12.055 22.4599 11.215C23.1482 10.3633 23.9707 9.69833 24.9274 9.22C25.884 8.74167 26.9399 8.5025 28.0949 8.5025C28.6432 8.5025 29.139 8.54917 29.5824 8.6425C30.0257 8.73583 30.4282 8.87 30.7899 9.045C31.1632 9.22 31.5074 9.43 31.8224 9.675C32.1374 9.92 32.4407 10.1883 32.7324 10.48L32.9599 9.7625C33.1699 9.15583 33.6132 8.8525 34.2899 8.8525H37.6499ZM46.8625 8.8525V27H41.4375V8.8525H46.8625ZM47.4225 3.8825C47.4225 4.31417 47.335 4.7225 47.16 5.1075C46.985 5.48083 46.7459 5.81333 46.4425 6.105C46.1392 6.385 45.7834 6.6125 45.375 6.7875C44.9784 6.95083 44.5525 7.0325 44.0975 7.0325C43.6542 7.0325 43.24 6.95083 42.855 6.7875C42.47 6.6125 42.1259 6.385 41.8225 6.105C41.5309 5.81333 41.2975 5.48083 41.1225 5.1075C40.9592 4.7225 40.8775 4.31417 40.8775 3.8825C40.8775 3.43917 40.9592 3.025 41.1225 2.64C41.2975 2.255 41.5309 1.91667 41.8225 1.625C42.1259 1.33333 42.47 1.10583 42.855 0.942499C43.24 0.779166 43.6542 0.6975 44.0975 0.6975C44.5525 0.6975 44.9784 0.779166 45.375 0.942499C45.7834 1.10583 46.1392 1.33333 46.4425 1.625C46.7459 1.91667 46.985 2.255 47.16 2.64C47.335 3.025 47.4225 3.43917 47.4225 3.8825ZM56.0711 0.802498V27H50.6461V0.802498H56.0711ZM73.0729 13.1575C72.9096 13.3558 72.7521 13.5133 72.6004 13.63C72.4487 13.7467 72.2329 13.805 71.9529 13.805C71.6846 13.805 71.4396 13.7408 71.2179 13.6125C71.0079 13.4842 70.7687 13.3442 70.5004 13.1925C70.2321 13.0292 69.9171 12.8833 69.5554 12.755C69.1937 12.6267 68.7446 12.5625 68.2079 12.5625C67.5429 12.5625 66.9654 12.685 66.4754 12.93C65.9971 13.175 65.6004 13.525 65.2854 13.98C64.9704 14.435 64.7371 14.995 64.5854 15.66C64.4337 16.3133 64.3579 17.0542 64.3579 17.8825C64.3579 19.6208 64.6904 20.9567 65.3554 21.89C66.0321 22.8233 66.9596 23.29 68.1379 23.29C68.7679 23.29 69.2637 23.2142 69.6254 23.0625C69.9987 22.8992 70.3137 22.7242 70.5704 22.5375C70.8271 22.3392 71.0604 22.1583 71.2704 21.995C71.4921 21.8317 71.7662 21.75 72.0929 21.75C72.5246 21.75 72.8512 21.9075 73.0729 22.2225L74.6479 24.165C74.0879 24.8067 73.4987 25.3317 72.8804 25.74C72.2621 26.1367 71.6262 26.4517 70.9729 26.685C70.3312 26.9067 69.6837 27.0583 69.0304 27.14C68.3771 27.2333 67.7412 27.28 67.1229 27.28C66.0146 27.28 64.9529 27.07 63.9379 26.65C62.9346 26.23 62.0479 25.6233 61.2779 24.83C60.5196 24.025 59.9129 23.0392 59.4579 21.8725C59.0146 20.7058 58.7929 19.3758 58.7929 17.8825C58.7929 16.5758 58.9854 15.3567 59.3704 14.225C59.7671 13.0817 60.3446 12.0958 61.1029 11.2675C61.8729 10.4275 62.8179 9.76833 63.9379 9.29C65.0696 8.81167 66.3762 8.5725 67.8579 8.5725C69.2812 8.5725 70.5296 8.8 71.6029 9.255C72.6762 9.71 73.6446 10.375 74.5079 11.25L73.0729 13.1575ZM84.8168 8.5725C86.1934 8.5725 87.4476 8.78833 88.5793 9.22C89.7109 9.65167 90.6793 10.27 91.4843 11.075C92.3009 11.88 92.9309 12.86 93.3743 14.015C93.8293 15.1583 94.0568 16.4475 94.0568 17.8825C94.0568 19.3292 93.8293 20.6358 93.3743 21.8025C92.9309 22.9575 92.3009 23.9433 91.4843 24.76C90.6793 25.565 89.7109 26.1892 88.5793 26.6325C87.4476 27.0642 86.1934 27.28 84.8168 27.28C83.4284 27.28 82.1626 27.0642 81.0193 26.6325C79.8876 26.1892 78.9076 25.565 78.0793 24.76C77.2626 23.9433 76.6268 22.9575 76.1718 21.8025C75.7284 20.6358 75.5068 19.3292 75.5068 17.8825C75.5068 16.4475 75.7284 15.1583 76.1718 14.015C76.6268 12.86 77.2626 11.88 78.0793 11.075C78.9076 10.27 79.8876 9.65167 81.0193 9.22C82.1626 8.78833 83.4284 8.5725 84.8168 8.5725ZM84.8168 23.255C86.0651 23.255 86.9809 22.8175 87.5643 21.9425C88.1593 21.0558 88.4568 19.7142 88.4568 17.9175C88.4568 16.1208 88.1593 14.785 87.5643 13.91C86.9809 13.035 86.0651 12.5975 84.8168 12.5975C83.5334 12.5975 82.5943 13.035 81.9993 13.91C81.4043 14.785 81.1068 16.1208 81.1068 17.9175C81.1068 19.7142 81.4043 21.0558 81.9993 21.9425C82.5943 22.8175 83.5334 23.255 84.8168 23.255Z" fill="url(#paint0_linear_9_267)"/>
<defs>
<linearGradient id="paint0_linear_9_267" x1="6.48201e-07" y1="22" x2="174" y2="22" gradientUnits="userSpaceOnUse">
<stop stop-color="#FF74C3"/>
<stop offset="1" stop-color="#FF8167"/>
</linearGradient>
</defs>
</svg>
